<svg height="1em" viewBox="0 0 714 740" fill="none" xmlns="http://www.w3.org/2000/svg">
    <path d="M0 506.667H233.551V740H0V506.667Z" fill="currentColor"/>
    <path d="M346.991 486.667H222.376C225.259 480.604 226.879 473.825 226.879 466.667C226.879 440.893 205.966 420 180.168 420C154.371 420 133.458 440.893 133.458 466.667C133.458 473.825 135.078 480.604 137.961 486.667H113.439V253.333H346.991V486.667Z" fill="currentColor"/>
    <path d="M213.533 466.667C213.533 480 197.154 506.667 213.533 506.667C208.82 518.296 186.139 520 179.562 520C172.985 520 151.517 518.296 146.804 506.667C163.183 506.667 146.804 486.667 146.804 466.667C146.804 446.667 160.15 433.333 180.168 433.333C200.187 433.333 213.533 446.667 213.533 466.667Z" fill="currentColor"/>
    <path d="M473.776 233.333H342.488C345.371 227.271 346.991 220.492 346.991 213.333C346.991 187.56 326.078 166.667 300.28 166.667C274.483 166.667 253.57 187.56 253.57 213.333C253.57 220.492 255.19 227.271 258.073 233.333H240.224V0H473.776V233.333Z" fill="currentColor"/>
    <path d="M333.645 213.333C333.645 226.667 317.266 253.333 333.645 253.333C328.932 264.963 306.251 266.667 299.674 266.667C293.097 266.667 271.629 264.963 266.916 253.333C283.295 253.333 266.916 233.333 266.916 213.333C266.916 193.333 280.262 180 300.28 180C320.299 180 333.645 193.333 333.645 213.333Z" fill="currentColor"/>
    <path d="M384.858 253.333C381.975 259.396 380.355 266.175 380.355 273.333C380.355 299.107 401.268 320 427.065 320C452.863 320 473.776 299.107 473.776 273.333C473.776 266.175 472.156 259.396 469.273 253.333H600.561V486.667H367.009V253.333H384.858Z" fill="currentColor"/>
    <path d="M393.701 273.333C393.701 260 410.08 233.333 393.701 233.333C398.414 221.704 421.095 220 427.672 220C434.249 220 455.717 221.704 460.43 233.333C444.051 233.333 460.43 253.333 460.43 273.333C460.43 293.333 447.084 306.667 427.065 306.667C407.047 306.667 393.701 293.333 393.701 273.333Z" fill="currentColor"/>
    <path d="M504.97 506.667C502.087 512.729 500.467 519.508 500.467 526.667C500.467 552.44 521.38 573.333 547.178 573.333C572.975 573.333 593.888 552.44 593.888 526.667C593.888 519.508 592.268 512.729 589.385 506.667H714V740H480.449V506.667H504.97Z" fill="currentColor"/>
    <path d="M513.813 526.667C513.813 513.333 530.192 486.667 513.813 486.667C518.526 475.037 541.207 473.333 547.784 473.333C554.361 473.333 575.829 475.037 580.542 486.667C564.163 486.667 580.542 506.667 580.542 526.667C580.542 546.667 567.196 560 547.178 560C527.159 560 513.813 546.667 513.813 526.667Z" fill="currentColor"/>
</svg>
