<svg width="500" height="657" viewBox="0 0 500 657" fill="none" xmlns="http://www.w3.org/2000/svg">
    <path d="M38.2119 0C32.0394 12.9881 28.5713 27.5114 28.5713 42.8477C28.5713 98.0641 73.3429 142.826 128.571 142.826C183.8 142.826 228.571 98.0641 228.571 42.8477C228.571 27.5114 225.104 12.9881 218.932 0H500V499.892H457.143L456.334 499.899C422.624 500.561 457.143 543.074 457.143 585.587C457.143 628.435 428.571 657 385.714 657C342.857 657 314.286 628.435 314.286 585.587C314.286 557.245 348.805 500.782 315.095 499.901L314.286 499.892H0V0H38.2119ZM208.835 187.818L136.818 406H200.738L213.346 364.238H285.29L297.897 406H361.818L289.801 187.818H208.835ZM250.17 247.903L271.911 319.921H226.725L248.466 247.903H250.17Z" fill="currentColor"/>
</svg>
