<svg height="1em" viewBox="0 0 200 342" fill="none" xmlns="http://www.w3.org/2000/svg">
    <g clip-path="url(#clip0_65_43)">
        <path d="M418.996 171.785C418.267 238.477 324.752 292.41 209.5 292.41C164.42 292.41 122.666 273.978 88.4893 251.479C98.9507 246.014 108.849 240.311 118.107 234.571C146.06 250.882 177.322 262.41 209.5 262.41C263.028 262.41 310.019 249.773 342.597 230.894C375.945 211.567 389 189.328 389 171C389 152.672 375.945 130.433 342.597 111.106C310.019 92.227 263.028 79.5898 209.5 79.5898C177.323 79.5898 146.06 91.1161 118.107 107.427C108.85 101.687 98.9516 95.9826 88.4902 90.5176C122.667 68.0192 164.421 49.5898 209.5 49.5898L212.208 49.6006C326.664 50.4408 419 104.471 419 171L418.996 171.785ZM61.2002 110.424C71.3765 115.264 81.1282 120.445 90.3848 125.793C86.8789 128.392 83.4519 131.039 80.1104 133.714C63.3613 147.123 49.5998 160.59 39.8008 171C49.5998 181.41 63.3613 194.877 80.1104 208.286C83.4519 210.961 86.8788 213.608 90.3848 216.207C81.1282 221.555 71.3764 226.735 61.2002 231.575C23.4325 201.306 0.0611867 171.079 0 171C0.0502555 170.935 23.4234 140.701 61.2002 110.424ZM23.7217 152.636C23.724 152.639 23.7272 152.642 23.7305 152.646C23.7291 152.645 23.7256 152.639 23.7236 152.637C23.7196 152.632 23.7165 152.628 23.7148 152.626C23.7163 152.628 23.7183 152.631 23.7217 152.636Z" fill="currentColor"/>
        <path d="M180.457 171.001C178.261 168.487 175.619 165.537 172.56 162.253C162.325 151.264 147.518 136.619 129.264 122.005C92.3605 92.4599 43.3032 64.5896 -9.49999 64.5896C-65.19 64.5896 -114.873 77.7035 -150.118 98.1286C-185.748 118.777 -204 145.073 -204 171C-204 196.927 -185.748 223.223 -150.118 243.872C-114.873 264.297 -65.19 277.41 -9.5 277.41C43.3033 277.41 92.3605 249.54 129.264 219.995C147.518 205.38 162.325 190.736 172.56 179.747C175.618 176.463 178.261 173.514 180.457 171.001Z" stroke="currentColor" stroke-width="30"/>
    </g>
    <rect x="15" y="15" width="170" height="312" rx="85" stroke="currentColor" stroke-width="30"/>
    <defs>
        <clipPath id="clip0_65_43">
            <rect width="200" height="342" rx="100" fill="white"/>
        </clipPath>
    </defs>
</svg>
