<svg xmlns="http://www.w3.org/2000/svg" width="200" height="342" fill="none"><g clip-path="url(#a)"><rect width="200" height="342" fill="#fff" rx="100"/><path stroke="#000" stroke-width="30" d="M19.543 171.001a369.378 369.378 0 0 1 7.897-8.748c10.235-10.989 25.042-25.634 43.296-40.248C107.64 92.46 156.697 64.59 209.5 64.59c55.69 0 105.373 13.114 140.618 33.539C385.748 118.777 404 145.073 404 171c0 25.927-18.252 52.223-53.882 72.872-35.245 20.425-84.928 33.538-140.618 33.538-52.803 0-101.861-27.87-138.764-57.415-18.254-14.615-33.06-29.259-43.296-40.248a372.339 372.339 0 0 1-7.897-8.746Z"/><path stroke="#fff" stroke-width="30" d="M178.158 171a424.82 424.82 0 0 0-8.633-7.553c-12.948-11.032-31.715-25.766-54.892-40.491C68.039 93.353 4.885 64.59-64 64.59c-71.243 0-135.012 13.31-180.409 34.188C-291.098 120.25-313 146.88-313 171c0 24.12 21.901 50.75 68.591 72.221C-199.012 264.099-135.243 277.41-64 277.41c68.885 0 132.038-28.764 178.633-58.366 23.177-14.725 41.945-29.46 54.892-40.492a425.024 425.024 0 0 0 8.633-7.552Z"/><path stroke="#000" stroke-width="30" d="M180.457 171.001a369.495 369.495 0 0 0-7.897-8.748c-10.235-10.989-25.042-25.634-43.296-40.248C92.36 92.46 43.304 64.59-9.5 64.59c-55.69 0-105.373 13.114-140.618 33.539C-185.748 118.777-204 145.073-204 171c0 25.927 18.252 52.223 53.882 72.872C-114.873 264.297-65.19 277.41-9.5 277.41c52.803 0 101.86-27.87 138.764-57.415 18.254-14.615 33.061-29.259 43.296-40.248a374.032 374.032 0 0 0 7.897-8.746Z"/></g><rect width="170" height="312" x="15" y="15" stroke="#000" stroke-width="30" rx="85"/><defs><clipPath id="a"><rect width="200" height="342" fill="#fff" rx="100"/></clipPath></defs></svg>