<svg width="732" height="401" viewBox="0 0 732 401" fill="none" xmlns="http://www.w3.org/2000/svg">
<path d="M297.474 24.8984H24.8984V376.102H579.223V352.513H604.121V401H0V0H297.474V24.8984ZM669.644 290.922L731.891 353.168L704.371 380.688L642.124 318.441H351.202V0H669.644V290.922ZM200.5 200.5L182.153 218.847L93.043 307.958L74.6963 289.611L163.808 200.5L74.6963 111.389L93.043 93.043L200.5 200.5ZM313.199 307.958H196.568V289.611H313.199V307.958ZM376.102 293.543H629.02L644.745 277.817V24.8984H376.102V293.543ZM483.396 78.1357H456.367V240.305H483.396V267.333H429.339V172.734H402.311V145.706H429.339V51.1074H483.396V78.1357ZM591.508 145.706H618.536V172.734H591.508V267.333H537.451V240.305H564.479V78.1357H537.451V51.1074H591.508V145.706Z" fill="currentColor"/>
</svg>
