<svg height="1em" viewBox="0 0 268 309" fill="none" xmlns="http://www.w3.org/2000/svg">
<path d="M100 259C100 286.614 77.6142 309 50 309C22.3858 309 0 286.614 0 259C0 231.386 22.3858 209 50 209C77.6142 209 100 231.386 100 259Z" fill="currentColor"/>
<path d="M242 50C242 77.6142 219.614 100 192 100C164.386 100 142 77.6142 142 50C142 22.3858 164.386 0 192 0C219.614 0 242 22.3858 242 50Z" fill="currentColor"/>
<path d="M268 226C268 253.614 245.614 276 218 276C190.386 276 168 253.614 168 226C168 198.386 190.386 176 218 176C245.614 176 268 198.386 268 226Z" fill="currentColor"/>
<path d="M192 50L218 226V239L192 63V50Z" fill="currentColor"/>
<path d="M50 259L218 226V239L50 272V259Z" fill="currentColor"/>
<path d="M49.9999 246L192 50V63L50 259L49.9999 246Z" fill="currentColor"/>
</svg>
