<svg xmlns="http://www.w3.org/2000/svg" height="1em" fill="none" viewBox="0 0 738 415"><path fill="currentColor" d="M558 100.17v38.757l-29 16.743h60v-98l149 149-149 149v-97.5h-59.555L558 274.656v40.014L384.5 414.84 211 314.67v-40.014l41.99-24.243L211 226.17v-38.757l41.99-24.243L211 138.927V100.17L384.5 0 558 100.17ZM384.5 326.34l-99.684-57.552L240 294.663l144.5 83.427L529 294.663l-44.816-25.875L384.5 326.34Zm-198-231.17L75 206.67l111.5 111.5-37.5 37.5-149-149 149-149 37.5 37.5Zm198 143.927L284.272 181.23 240 206.791l144.5 83.428L529 206.791l-44.272-25.561L384.5 239.097ZM240 119.549l144.5 83.427L529 119.549 384.5 36.121 240 119.55Z"/></svg>
